<svg width="771" height="771" viewBox="0 0 771 771" fill="none" xmlns="http://www.w3.org/2000/svg">
<rect width="769" height="775" rx="51" fill="url(#paint0_radial_968_175)"/>
<rect width="769" height="775" rx="51" fill="url(#paint1_linear_968_175)" fill-opacity="0.6"/>
<path d="M553.528 494.437C590.466 454.033 613 400.223 613 341.154C613 215.716 511.384 114 386 114C260.616 114 159 215.716 159 341.154C159 400.83 181.999 455.137 219.614 495.677V495.898L225.382 501.67C225.449 501.738 225.517 501.805 225.584 501.873L226.052 502.341L362.725 639.117C375.893 652.294 397.249 652.294 410.416 639.117L410.449 639.085L410.481 639.052L547.155 501.131L553.528 494.7V494.437Z" fill="#0286FF" stroke="#030508" stroke-width="44"/>
<mask id="mask0_968_175" style="mask-type:alpha" maskUnits="userSpaceOnUse" x="181" y="136" width="410" height="491">
<path d="M531.528 341.725V485.645L394.854 623.566C390.279 628.145 382.862 628.145 378.288 623.566L241.614 486.79V341.725H531.528Z" fill="#0286FF"/>
<path d="M591 341.154C591 454.457 499.218 546.307 386 546.307C272.782 546.307 181 454.457 181 341.154C181 227.85 272.782 136 386 136C499.218 136 591 227.85 591 341.154Z" fill="#0286FF"/>
</mask>
<g mask="url(#mask0_968_175)">
<path d="M82.2532 265.972C113.79 252.293 160.863 226.517 150.153 275.276C139.442 324.036 173.338 382.246 196.901 388.233C220.465 394.22 298.674 400.438 294.14 425.22C289.606 450.002 258.678 459.265 284.879 470.404C311.079 481.543 349.995 489.488 335.645 510.313C321.296 531.137 280.985 564.517 307.524 565.106C334.064 565.694 361.352 528.497 381.855 519.693C402.357 510.89 460.449 443.365 429.476 433.314C398.503 423.263 356.943 391.728 335.522 397.939C314.102 404.149 185.891 357.111 243.582 335.258C301.272 313.405 277.462 356.594 300.601 352.943C323.741 349.291 295.69 296.091 341.005 266.88C386.321 237.67 355.841 220.574 307.403 178.806C258.965 137.039 179.06 183.574 152.752 188.243C131.705 191.979 96.9831 241.619 82.2532 265.972Z" fill="white"/>
<path d="M368.252 114.787C359.2 132.49 412.608 203.706 431.299 192.631C449.99 181.556 496.957 129.432 516.202 146.375C535.447 163.318 487.326 224.232 503.478 225.694C519.63 227.156 514.571 238.757 527.604 229.355C617.051 164.828 550.681 265.795 548.884 285.704C547.086 305.613 513.179 301.216 525.149 318.165C537.119 335.114 519.77 376.418 539.135 380.089C558.501 383.76 552.648 405.147 547.705 415.474C542.761 425.8 448.471 484.124 480.689 496.633C609.809 702.723 552.948 461.184 576.589 439.045L647.091 152.17L445.361 114.726L368.252 114.787Z" fill="white"/>
</g>
<defs>
<radialGradient id="paint0_radial_968_175" cx="0" cy="0" r="1" gradientUnits="userSpaceOnUse" gradientTransform="translate(384.5 387.5) rotate(87.4891) scale(582.059 577.553)">
<stop offset="0.359375" stop-color="#69FF93"/>
<stop offset="1" stop-color="#FCFFE7"/>
<stop offset="1" stop-color="#DBFF00"/>
</radialGradient>
<linearGradient id="paint1_linear_968_175" x1="384.5" y1="0" x2="384.5" y2="775" gradientUnits="userSpaceOnUse">
<stop stop-color="#FFA9A9"/>
<stop offset="1" stop-color="#7DA2FF"/>
</linearGradient>
</defs>
</svg>
